<svg width="14" height="15" viewBox="0 0 14 15" fill="none" xmlns="http://www.w3.org/2000/svg">
<path fill-rule="evenodd" clip-rule="evenodd" d="M6.75095 14.9527C6.94986 14.9527 7.14063 14.8994 7.28128 14.8047C7.42193 14.71 7.50095 14.5816 7.50095 14.4476V2.53575L12.2199 5.71447C12.3608 5.8093 12.5518 5.86258 12.7509 5.86258C12.9501 5.86258 13.1411 5.8093 13.2819 5.71447C13.4228 5.61963 13.5019 5.49101 13.5019 5.3569C13.5019 5.22278 13.4228 5.09416 13.2819 4.99933L7.28195 0.959013C7.21228 0.91198 7.12951 0.874665 7.0384 0.849205C6.94728 0.823744 6.8496 0.810638 6.75095 0.810638C6.6523 0.810638 6.55462 0.823744 6.4635 0.849205C6.37238 0.874665 6.28962 0.91198 6.21995 0.959013L0.219947 4.99933C0.150215 5.04629 0.0949012 5.10203 0.0571625 5.16338C0.0194239 5.22473 0 5.29049 0 5.3569C0 5.49101 0.0791173 5.61963 0.219947 5.71447C0.360777 5.8093 0.551784 5.86258 0.750947 5.86258C0.950111 5.86258 1.14112 5.8093 1.28195 5.71447L6.00095 2.53575V14.4476C6.00095 14.5816 6.07997 14.71 6.22062 14.8047C6.36127 14.8994 6.55203 14.9527 6.75095 14.9527Z" fill="#133011"/>
</svg>
